<?xml version="1.0" encoding="UTF-8" standalone="no"?>
<!-- Created with Inkscape (http://www.inkscape.org/) -->

<svg
   xmlns:dc="http://purl.org/dc/elements/1.1/"
   xmlns:cc="http://creativecommons.org/ns#"
   xmlns:rdf="http://www.w3.org/1999/02/22-rdf-syntax-ns#"
   xmlns:svg="http://www.w3.org/2000/svg"
   xmlns="http://www.w3.org/2000/svg"
   xmlns:sodipodi="http://sodipodi.sourceforge.net/DTD/sodipodi-0.dtd"
   xmlns:inkscape="http://www.inkscape.org/namespaces/inkscape"
   width="98.257935mm"
   height="28.250792mm"
   viewBox="0 0 98.257935 28.250792"
   version="1.1"
   id="svg8"
   inkscape:version="0.92.5 (2060ec1f9f, 2020-04-08)"
   sodipodi:docname="scater_logo.svg">
  <defs
     id="defs2">
    <clipPath
       id="clipPath831"
       clipPathUnits="userSpaceOnUse">
      <path
         inkscape:connector-curvature="0"
         id="path829"
         d="M 0,90.385 H 283.46 V 0 H 0 Z" />
    </clipPath>
    <clipPath
       id="clipPath1167"
       clipPathUnits="userSpaceOnUse">
      <path
         inkscape:connector-curvature="0"
         id="path1165"
         d="M 4.39111,78.189 H 280.64 V 24.0249 H 4.39111 Z" />
    </clipPath>
  </defs>
  <sodipodi:namedview
     id="base"
     pagecolor="#ffffff"
     bordercolor="#666666"
     borderopacity="1.0"
     inkscape:pageopacity="0.0"
     inkscape:pageshadow="2"
     inkscape:zoom="0.75183664"
     inkscape:cx="476.96394"
     inkscape:cy="-15.23303"
     inkscape:document-units="mm"
     inkscape:current-layer="g1201"
     showgrid="false"
     inkscape:window-width="1678"
     inkscape:window-height="972"
     inkscape:window-x="2108"
     inkscape:window-y="133"
     inkscape:window-maximized="0" />
  <metadata
     id="metadata5">
    <rdf:RDF>
      <cc:Work
         rdf:about="">
        <dc:format>image/svg+xml</dc:format>
        <dc:type
           rdf:resource="http://purl.org/dc/dcmitype/StillImage" />
        <dc:title></dc:title>
      </cc:Work>
    </rdf:RDF>
  </metadata>
  <g
     inkscape:label="Layer 1"
     inkscape:groupmode="layer"
     id="layer1"
     transform="translate(-58.629464,-137.73174)">
    <g
       transform="matrix(0.35277777,0,0,-0.35277777,57.484666,168.01514)"
       inkscape:label="SCATER_logo"
       id="g823">
      <g
         id="g825">
        <g
           clip-path="url(#clipPath831)"
           id="g827">
          <g
             transform="translate(88.708,46.3999)"
             id="g833">
            <path
               inkscape:connector-curvature="0"
               id="path835"
               style="fill:none;stroke:#c8b4d2;stroke-width:1;stroke-linecap:butt;stroke-linejoin:miter;stroke-miterlimit:4;stroke-dasharray:none;stroke-opacity:1"
               d="m 0,0 c -1.811,-9.157 -7.459,-14.722 -14.797,-13.271 -7.339,1.452 -11.955,9.359 -10.313,17.661 1.642,8.303 8.92,13.857 16.258,12.406 C -1.514,15.344 1.79,9.05 0,0 Z" />
          </g>
          <g
             transform="translate(84.0884,40.4238)"
             id="g837">
            <path
               inkscape:connector-curvature="0"
               id="path839"
               style="fill:#c8b4d2;fill-opacity:1;fill-rule:nonzero;stroke:none"
               d="m 0,0 c -0.888,-4.492 -5.493,-7.365 -10.285,-6.417 -4.792,0.947 -7.956,5.356 -7.068,9.848 0.888,4.492 5.493,7.365 10.285,6.418 C -2.276,8.901 0.889,4.492 0,0" />
          </g>
          <g
             transform="translate(196.1006,73.6069)"
             id="g841">
            <path
               inkscape:connector-curvature="0"
               id="path843"
               style="fill:none;stroke:#b8cfd2;stroke-width:2;stroke-linecap:round;stroke-linejoin:miter;stroke-miterlimit:4;stroke-dasharray:none;stroke-opacity:1"
               d="M 0,0 C 0,-22.5 21.262,-22.5 21.262,-45" />
          </g>
          <g
             transform="translate(216.4814,73.6069)"
             id="g845">
            <path
               inkscape:connector-curvature="0"
               id="path847"
               style="fill:none;stroke:#b8cfd2;stroke-width:2;stroke-linecap:round;stroke-linejoin:miter;stroke-miterlimit:4;stroke-dasharray:none;stroke-opacity:1"
               d="M 0,0 C 0,-22.5 -21.262,-22.5 -21.262,-45" />
          </g>
          <g
             transform="translate(198.0498,71.189)"
             id="g849">
            <path
               inkscape:connector-curvature="0"
               id="path851"
               style="fill:none;stroke:#b8cfd2;stroke-width:2;stroke-linecap:round;stroke-linejoin:miter;stroke-miterlimit:4;stroke-dasharray:none;stroke-opacity:1"
               d="M 0,0 H 16.317" />
          </g>
          <g
             transform="translate(197.3096,31.189)"
             id="g853">
            <path
               inkscape:connector-curvature="0"
               id="path855"
               style="fill:none;stroke:#b8cfd2;stroke-width:2;stroke-linecap:round;stroke-linejoin:miter;stroke-miterlimit:4;stroke-dasharray:none;stroke-opacity:1"
               d="M 0,0 H 17.799" />
          </g>
          <g
             transform="translate(199.3975,66.0503)"
             id="g857">
            <path
               inkscape:connector-curvature="0"
               id="path859"
               style="fill:none;stroke:#b8cfd2;stroke-width:2;stroke-linecap:round;stroke-linejoin:miter;stroke-miterlimit:4;stroke-dasharray:none;stroke-opacity:1"
               d="M 0,0 H 13.623" />
          </g>
          <g
             transform="translate(202.8037,60.9116)"
             id="g861">
            <path
               inkscape:connector-curvature="0"
               id="path863"
               style="fill:none;stroke:#b8cfd2;stroke-width:2;stroke-linecap:round;stroke-linejoin:miter;stroke-miterlimit:4;stroke-dasharray:none;stroke-opacity:1"
               d="M 0,0 H 6.812" />
          </g>
          <g
             transform="translate(205.1523,55.7729)"
             id="g865">
            <path
               inkscape:connector-curvature="0"
               id="path867"
               style="fill:none;stroke:#b8cfd2;stroke-width:2;stroke-linecap:round;stroke-linejoin:miter;stroke-miterlimit:4;stroke-dasharray:none;stroke-opacity:1"
               d="M 0,0 H 2.114" />
          </g>
          <g
             transform="translate(213.6807,36.5776)"
             id="g869">
            <path
               inkscape:connector-curvature="0"
               id="path871"
               style="fill:none;stroke:#b8cfd2;stroke-width:2;stroke-linecap:round;stroke-linejoin:miter;stroke-miterlimit:4;stroke-dasharray:none;stroke-opacity:1"
               d="M 0,0 H -14.944" />
          </g>
          <g
             transform="translate(210.082,41.9668)"
             id="g873">
            <path
               inkscape:connector-curvature="0"
               id="path875"
               style="fill:none;stroke:#b8cfd2;stroke-width:2;stroke-linecap:round;stroke-linejoin:miter;stroke-miterlimit:4;stroke-dasharray:none;stroke-opacity:1"
               d="M 0,0 H -7.746" />
          </g>
          <g
             transform="translate(207.2666,47.3555)"
             id="g877">
            <path
               inkscape:connector-curvature="0"
               id="path879"
               style="fill:none;stroke:#b8cfd2;stroke-width:2;stroke-linecap:round;stroke-linejoin:miter;stroke-miterlimit:4;stroke-dasharray:none;stroke-opacity:1"
               d="M 0,0 H -2.114" />
          </g>
          <g
             transform="translate(117.3525,45.8208)"
             id="g881">
            <path
               inkscape:connector-curvature="0"
               id="path883"
               style="fill:none;stroke:#ff1f70;stroke-width:1;stroke-linecap:butt;stroke-linejoin:miter;stroke-miterlimit:4;stroke-dasharray:none;stroke-opacity:1"
               d="M 0,0 H 15.786 L 8.038,22.23 H 7.82 Z" />
          </g>
          <g
             transform="translate(118.4546,61.7681)"
             id="g885">
            <path
               inkscape:connector-curvature="0"
               id="path887"
               style="fill:none;stroke:#bf1754;stroke-width:1;stroke-linecap:butt;stroke-linejoin:miter;stroke-miterlimit:4;stroke-dasharray:none;stroke-opacity:1"
               d="m 0,0 -0.169,-0.012 -4.904,-17.807 12.342,0.86 z" />
          </g>
          <g
             transform="translate(112.5991,51.4624)"
             id="g889">
            <path
               inkscape:connector-curvature="0"
               id="path891"
               style="fill:none;stroke:#801038;stroke-width:1;stroke-linecap:butt;stroke-linejoin:miter;stroke-miterlimit:4;stroke-dasharray:none;stroke-opacity:1"
               d="m 0,0 -0.122,-0.024 -1.987,-13.384 8.899,1.72 z" />
          </g>
          <g
             transform="translate(110.9614,40.123)"
             id="g893">
            <path
               inkscape:connector-curvature="0"
               id="path895"
               style="fill:none;stroke:#40081c;stroke-width:1;stroke-linecap:butt;stroke-linejoin:miter;stroke-miterlimit:4;stroke-dasharray:none;stroke-opacity:1"
               d="m 0,0 -0.075,-0.036 0.929,-8.96 5.457,2.579 z" />
          </g>
          <g
             transform="translate(120.564,26.1563)"
             id="g897">
            <path
               inkscape:connector-curvature="0"
               id="path899"
               style="fill:none;stroke:#000000;stroke-width:1;stroke-linecap:butt;stroke-linejoin:miter;stroke-miterlimit:4;stroke-dasharray:none;stroke-opacity:1"
               d="M 0,0 2.012,3.439 -3.819,4.584 -3.847,4.537 Z" />
          </g>
          <g
             transform="translate(120.0186,33.7808)"
             id="g901">
            <path
               inkscape:connector-curvature="0"
               id="path903"
               style="fill:none;stroke:#1f4018;stroke-width:1;stroke-linecap:butt;stroke-linejoin:miter;stroke-miterlimit:4;stroke-dasharray:none;stroke-opacity:1"
               d="M 0,0 -0.029,-0.029 1.881,-4.07 4.01,-1.964 Z" />
          </g>
          <g
             transform="translate(124.2314,35.8594)"
             id="g905">
            <path
               inkscape:connector-curvature="0"
               id="path907"
               style="fill:none;stroke:#3d8030;stroke-width:1;stroke-linecap:butt;stroke-linejoin:miter;stroke-miterlimit:4;stroke-dasharray:none;stroke-opacity:1"
               d="m 0,0 -0.031,-0.011 -0.027,-3.545 2.246,0.772 z" />
          </g>
          <g
             transform="translate(129.9209,35.5264)"
             id="g909">
            <path
               inkscape:connector-curvature="0"
               id="path911"
               style="fill:none;stroke:#5cbf47;stroke-width:1;stroke-linecap:butt;stroke-linejoin:miter;stroke-miterlimit:4;stroke-dasharray:none;stroke-opacity:1"
               d="M 0,0 -0.033,0.009 -1.996,-3.042 0.368,-3.603 Z" />
          </g>
          <g
             transform="translate(131.0693,28.6338)"
             id="g913">
            <path
               inkscape:connector-curvature="0"
               id="path915"
               style="fill:none;stroke:#7aff5f;stroke-width:1;stroke-linecap:butt;stroke-linejoin:miter;stroke-miterlimit:4;stroke-dasharray:none;stroke-opacity:1"
               d="M 0,0 2.48,-1.896 3.934,2.527 3.899,2.554 Z" />
          </g>
          <g
             transform="translate(172.8662,41.2627)"
             id="g917">
            <path
               inkscape:connector-curvature="0"
               id="path919"
               style="fill:none;stroke:#09009f;stroke-width:1;stroke-linecap:butt;stroke-linejoin:miter;stroke-miterlimit:4;stroke-dasharray:none;stroke-opacity:1"
               d="m 0,0 v 25.058 c 0,1.323 -3.216,0.726 -3.216,1.776 v 10.618 c 1.375,0.436 2.379,1.707 2.379,3.228 0,1.878 -1.52,3.4 -3.4,3.4 -1.877,0 -3.4,-1.522 -3.4,-3.4 0,-1.442 0.901,-2.667 2.167,-3.162 0,0 0.233,-10.107 0,-10.904 -0.232,-0.796 -2.801,-0.233 -3.004,-1.836 V 0 c 0,-0.793 3.217,-1.449 3.217,-2.154 v -11.272 c -1.376,-0.436 -2.38,-1.707 -2.38,-3.227 0,-1.878 1.523,-3.401 3.401,-3.401 1.879,0 3.399,1.523 3.399,3.401 0,1.441 -0.899,2.666 -2.167,3.161 0,0 -0.057,10.208 0,11.172 C -2.948,-1.357 0,-0.898 0,0 Z" />
          </g>
          <g
             transform="translate(167.3516,64.6382)"
             id="g921">
            <path
               inkscape:connector-curvature="0"
               id="path923"
               style="fill:#09009f;fill-opacity:1;fill-rule:nonzero;stroke:none"
               d="m 0,0 c 0,-0.276 -0.225,-0.501 -0.501,-0.501 -0.277,0 -0.502,0.225 -0.502,0.501 0,0.277 0.225,0.501 0.502,0.501 C -0.225,0.501 0,0.277 0,0" />
          </g>
          <g
             transform="translate(170.7949,64.6382)"
             id="g925">
            <path
               inkscape:connector-curvature="0"
               id="path927"
               style="fill:#09009f;fill-opacity:1;fill-rule:nonzero;stroke:none"
               d="m 0,0 c 0,-0.276 -0.224,-0.501 -0.501,-0.501 -0.277,0 -0.501,0.225 -0.501,0.501 0,0.277 0.224,0.501 0.501,0.501 C -0.224,0.501 0,0.277 0,0" />
          </g>
          <g
             transform="translate(169.1309,63.0107)"
             id="g929">
            <path
               inkscape:connector-curvature="0"
               id="path931"
               style="fill:#09009f;fill-opacity:1;fill-rule:nonzero;stroke:none"
               d="m 0,0 c 0,-0.276 -0.225,-0.502 -0.501,-0.502 -0.277,0 -0.501,0.226 -0.501,0.502 0,0.277 0.224,0.501 0.501,0.501 C -0.225,0.501 0,0.277 0,0" />
          </g>
          <g
             transform="translate(169.9854,42.3481)"
             id="g933">
            <path
               inkscape:connector-curvature="0"
               id="path935"
               style="fill:#09009f;fill-opacity:1;fill-rule:nonzero;stroke:none"
               d="M 0,0 C 0,0.276 0.226,0.501 0.501,0.501 0.779,0.501 1.002,0.276 1.002,0 1.002,-0.277 0.779,-0.501 0.501,-0.501 0.226,-0.501 0,-0.277 0,0" />
          </g>
          <g
             transform="translate(166.542,42.3481)"
             id="g937">
            <path
               inkscape:connector-curvature="0"
               id="path939"
               style="fill:#09009f;fill-opacity:1;fill-rule:nonzero;stroke:none"
               d="M 0,0 C 0,0.276 0.225,0.501 0.501,0.501 0.777,0.501 1.002,0.276 1.002,0 1.002,-0.277 0.777,-0.501 0.501,-0.501 0.225,-0.501 0,-0.277 0,0" />
          </g>
          <g
             transform="translate(168.207,43.9761)"
             id="g941">
            <path
               inkscape:connector-curvature="0"
               id="path943"
               style="fill:#09009f;fill-opacity:1;fill-rule:nonzero;stroke:none"
               d="M 0,0 C 0,0.276 0.226,0.501 0.501,0.501 0.776,0.501 1.002,0.276 1.002,0 1.002,-0.277 0.776,-0.502 0.501,-0.502 0.226,-0.502 0,-0.277 0,0" />
          </g>
          <g
             transform="translate(166.8506,59.3164)"
             id="g945">
            <path
               inkscape:connector-curvature="0"
               id="path947"
               style="fill:#09009f;fill-opacity:1;fill-rule:nonzero;stroke:none"
               d="m 0,0 c 0,-0.139 -0.112,-0.25 -0.251,-0.25 -0.138,0 -0.251,0.111 -0.251,0.25 0,0.139 0.113,0.25 0.251,0.25 C -0.112,0.25 0,0.139 0,0" />
          </g>
          <g
             transform="translate(167.7949,59.3164)"
             id="g949">
            <path
               inkscape:connector-curvature="0"
               id="path951"
               style="fill:#09009f;fill-opacity:1;fill-rule:nonzero;stroke:none"
               d="m 0,0 c 0,-0.139 -0.111,-0.25 -0.249,-0.25 -0.14,0 -0.252,0.111 -0.252,0.25 0,0.139 0.112,0.25 0.252,0.25 C -0.111,0.25 0,0.139 0,0" />
          </g>
          <g
             transform="translate(168.9092,59.3164)"
             id="g953">
            <path
               inkscape:connector-curvature="0"
               id="path955"
               style="fill:#09009f;fill-opacity:1;fill-rule:nonzero;stroke:none"
               d="m 0,0 c 0,-0.139 -0.112,-0.25 -0.25,-0.25 -0.14,0 -0.251,0.111 -0.251,0.25 0,0.139 0.111,0.25 0.251,0.25 C -0.112,0.25 0,0.139 0,0" />
          </g>
          <g
             transform="translate(169.8545,59.3164)"
             id="g957">
            <path
               inkscape:connector-curvature="0"
               id="path959"
               style="fill:#09009f;fill-opacity:1;fill-rule:nonzero;stroke:none"
               d="m 0,0 c 0,-0.139 -0.113,-0.25 -0.25,-0.25 -0.139,0 -0.251,0.111 -0.251,0.25 0,0.139 0.112,0.25 0.251,0.25 C -0.113,0.25 0,0.139 0,0" />
          </g>
          <g
             transform="translate(167.4072,58.4399)"
             id="g961">
            <path
               inkscape:connector-curvature="0"
               id="path963"
               style="fill:#09009f;fill-opacity:1;fill-rule:nonzero;stroke:none"
               d="m 0,0 c 0,-0.139 -0.111,-0.25 -0.25,-0.25 -0.14,0 -0.251,0.111 -0.251,0.25 0,0.139 0.111,0.25 0.251,0.25 C -0.111,0.25 0,0.139 0,0" />
          </g>
          <g
             transform="translate(168.3525,58.4399)"
             id="g965">
            <path
               inkscape:connector-curvature="0"
               id="path967"
               style="fill:#09009f;fill-opacity:1;fill-rule:nonzero;stroke:none"
               d="m 0,0 c 0,-0.139 -0.112,-0.25 -0.251,-0.25 -0.138,0 -0.25,0.111 -0.25,0.25 0,0.139 0.112,0.25 0.25,0.25 C -0.112,0.25 0,0.139 0,0" />
          </g>
          <g
             transform="translate(169.4658,58.4399)"
             id="g969">
            <path
               inkscape:connector-curvature="0"
               id="path971"
               style="fill:#09009f;fill-opacity:1;fill-rule:nonzero;stroke:none"
               d="m 0,0 c 0,-0.139 -0.112,-0.25 -0.251,-0.25 -0.139,0 -0.25,0.111 -0.25,0.25 0,0.139 0.111,0.25 0.25,0.25 C -0.112,0.25 0,0.139 0,0" />
          </g>
          <g
             transform="translate(170.4121,58.4399)"
             id="g973">
            <path
               inkscape:connector-curvature="0"
               id="path975"
               style="fill:#09009f;fill-opacity:1;fill-rule:nonzero;stroke:none"
               d="m 0,0 c 0,-0.139 -0.113,-0.25 -0.252,-0.25 -0.137,0 -0.249,0.111 -0.249,0.25 0,0.139 0.112,0.25 0.249,0.25 C -0.113,0.25 0,0.139 0,0" />
          </g>
          <g
             transform="translate(171.0449,59.3164)"
             id="g977">
            <path
               inkscape:connector-curvature="0"
               id="path979"
               style="fill:#09009f;fill-opacity:1;fill-rule:nonzero;stroke:none"
               d="m 0,0 c 0,-0.139 -0.111,-0.25 -0.25,-0.25 -0.14,0 -0.251,0.111 -0.251,0.25 0,0.139 0.111,0.25 0.251,0.25 C -0.111,0.25 0,0.139 0,0" />
          </g>
          <g
             transform="translate(166.8604,57.501)"
             id="g981">
            <path
               inkscape:connector-curvature="0"
               id="path983"
               style="fill:#09009f;fill-opacity:1;fill-rule:nonzero;stroke:none"
               d="m 0,0 c 0,-0.139 -0.112,-0.25 -0.249,-0.25 -0.14,0 -0.251,0.111 -0.251,0.25 0,0.139 0.111,0.25 0.251,0.25 C -0.112,0.25 0,0.139 0,0" />
          </g>
          <g
             transform="translate(167.8066,57.501)"
             id="g985">
            <path
               inkscape:connector-curvature="0"
               id="path987"
               style="fill:#09009f;fill-opacity:1;fill-rule:nonzero;stroke:none"
               d="m 0,0 c 0,-0.139 -0.112,-0.25 -0.251,-0.25 -0.138,0 -0.25,0.111 -0.25,0.25 0,0.139 0.112,0.25 0.25,0.25 C -0.112,0.25 0,0.139 0,0" />
          </g>
          <g
             transform="translate(168.9199,57.501)"
             id="g989">
            <path
               inkscape:connector-curvature="0"
               id="path991"
               style="fill:#09009f;fill-opacity:1;fill-rule:nonzero;stroke:none"
               d="m 0,0 c 0,-0.139 -0.111,-0.25 -0.25,-0.25 -0.138,0 -0.251,0.111 -0.251,0.25 0,0.139 0.113,0.25 0.251,0.25 C -0.111,0.25 0,0.139 0,0" />
          </g>
          <g
             transform="translate(169.8652,57.501)"
             id="g993">
            <path
               inkscape:connector-curvature="0"
               id="path995"
               style="fill:#09009f;fill-opacity:1;fill-rule:nonzero;stroke:none"
               d="m 0,0 c 0,-0.139 -0.111,-0.25 -0.25,-0.25 -0.139,0 -0.251,0.111 -0.251,0.25 0,0.139 0.112,0.25 0.251,0.25 C -0.111,0.25 0,0.139 0,0" />
          </g>
          <g
             transform="translate(167.418,56.6245)"
             id="g997">
            <path
               inkscape:connector-curvature="0"
               id="path999"
               style="fill:#09009f;fill-opacity:1;fill-rule:nonzero;stroke:none"
               d="m 0,0 c 0,-0.139 -0.112,-0.251 -0.251,-0.251 -0.138,0 -0.25,0.112 -0.25,0.251 0,0.139 0.112,0.25 0.25,0.25 C -0.112,0.25 0,0.139 0,0" />
          </g>
          <g
             transform="translate(168.3633,56.6245)"
             id="g1001">
            <path
               inkscape:connector-curvature="0"
               id="path1003"
               style="fill:#09009f;fill-opacity:1;fill-rule:nonzero;stroke:none"
               d="m 0,0 c 0,-0.139 -0.112,-0.251 -0.251,-0.251 -0.138,0 -0.25,0.112 -0.25,0.251 0,0.139 0.112,0.25 0.25,0.25 C -0.112,0.25 0,0.139 0,0" />
          </g>
          <g
             transform="translate(169.4775,56.6245)"
             id="g1005">
            <path
               inkscape:connector-curvature="0"
               id="path1007"
               style="fill:#09009f;fill-opacity:1;fill-rule:nonzero;stroke:none"
               d="m 0,0 c 0,-0.139 -0.112,-0.251 -0.25,-0.251 -0.139,0 -0.251,0.112 -0.251,0.251 0,0.139 0.112,0.25 0.251,0.25 C -0.112,0.25 0,0.139 0,0" />
          </g>
          <g
             transform="translate(170.4229,56.6245)"
             id="g1009">
            <path
               inkscape:connector-curvature="0"
               id="path1011"
               style="fill:#09009f;fill-opacity:1;fill-rule:nonzero;stroke:none"
               d="m 0,0 c 0,-0.139 -0.113,-0.251 -0.251,-0.251 -0.138,0 -0.251,0.112 -0.251,0.251 0,0.139 0.113,0.25 0.251,0.25 C -0.113,0.25 0,0.139 0,0" />
          </g>
          <g
             transform="translate(171.0557,57.501)"
             id="g1013">
            <path
               inkscape:connector-curvature="0"
               id="path1015"
               style="fill:#09009f;fill-opacity:1;fill-rule:nonzero;stroke:none"
               d="m 0,0 c 0,-0.139 -0.112,-0.25 -0.25,-0.25 -0.138,0 -0.251,0.111 -0.251,0.25 0,0.139 0.113,0.25 0.251,0.25 C -0.112,0.25 0,0.139 0,0" />
          </g>
          <g
             transform="translate(166.8604,55.4971)"
             id="g1017">
            <path
               inkscape:connector-curvature="0"
               id="path1019"
               style="fill:#09009f;fill-opacity:1;fill-rule:nonzero;stroke:none"
               d="m 0,0 c 0,-0.138 -0.112,-0.25 -0.249,-0.25 -0.14,0 -0.251,0.112 -0.251,0.25 0,0.139 0.111,0.251 0.251,0.251 C -0.112,0.251 0,0.139 0,0" />
          </g>
          <g
             transform="translate(167.8066,55.4971)"
             id="g1021">
            <path
               inkscape:connector-curvature="0"
               id="path1023"
               style="fill:#09009f;fill-opacity:1;fill-rule:nonzero;stroke:none"
               d="m 0,0 c 0,-0.138 -0.112,-0.25 -0.251,-0.25 -0.138,0 -0.25,0.112 -0.25,0.25 0,0.139 0.112,0.251 0.25,0.251 C -0.112,0.251 0,0.139 0,0" />
          </g>
          <g
             transform="translate(168.9199,55.4971)"
             id="g1025">
            <path
               inkscape:connector-curvature="0"
               id="path1027"
               style="fill:#09009f;fill-opacity:1;fill-rule:nonzero;stroke:none"
               d="m 0,0 c 0,-0.138 -0.111,-0.25 -0.25,-0.25 -0.138,0 -0.251,0.112 -0.251,0.25 0,0.139 0.113,0.251 0.251,0.251 C -0.111,0.251 0,0.139 0,0" />
          </g>
          <g
             transform="translate(169.8652,55.4971)"
             id="g1029">
            <path
               inkscape:connector-curvature="0"
               id="path1031"
               style="fill:#09009f;fill-opacity:1;fill-rule:nonzero;stroke:none"
               d="m 0,0 c 0,-0.138 -0.111,-0.25 -0.25,-0.25 -0.139,0 -0.251,0.112 -0.251,0.25 0,0.139 0.112,0.251 0.251,0.251 C -0.111,0.251 0,0.139 0,0" />
          </g>
          <g
             transform="translate(167.418,54.6211)"
             id="g1033">
            <path
               inkscape:connector-curvature="0"
               id="path1035"
               style="fill:#09009f;fill-opacity:1;fill-rule:nonzero;stroke:none"
               d="m 0,0 c 0,-0.139 -0.112,-0.25 -0.251,-0.25 -0.138,0 -0.25,0.111 -0.25,0.25 0,0.138 0.112,0.25 0.25,0.25 C -0.112,0.25 0,0.138 0,0" />
          </g>
          <g
             transform="translate(168.3633,54.6211)"
             id="g1037">
            <path
               inkscape:connector-curvature="0"
               id="path1039"
               style="fill:#09009f;fill-opacity:1;fill-rule:nonzero;stroke:none"
               d="m 0,0 c 0,-0.139 -0.112,-0.25 -0.251,-0.25 -0.138,0 -0.25,0.111 -0.25,0.25 0,0.138 0.112,0.25 0.25,0.25 C -0.112,0.25 0,0.138 0,0" />
          </g>
          <g
             transform="translate(169.4775,54.6211)"
             id="g1041">
            <path
               inkscape:connector-curvature="0"
               id="path1043"
               style="fill:#09009f;fill-opacity:1;fill-rule:nonzero;stroke:none"
               d="m 0,0 c 0,-0.139 -0.112,-0.25 -0.25,-0.25 -0.139,0 -0.251,0.111 -0.251,0.25 0,0.138 0.112,0.25 0.251,0.25 C -0.112,0.25 0,0.138 0,0" />
          </g>
          <g
             transform="translate(170.4229,54.6211)"
             id="g1045">
            <path
               inkscape:connector-curvature="0"
               id="path1047"
               style="fill:#09009f;fill-opacity:1;fill-rule:nonzero;stroke:none"
               d="m 0,0 c 0,-0.139 -0.113,-0.25 -0.251,-0.25 -0.138,0 -0.251,0.111 -0.251,0.25 0,0.138 0.113,0.25 0.251,0.25 C -0.113,0.25 0,0.138 0,0" />
          </g>
          <g
             transform="translate(171.0557,55.4971)"
             id="g1049">
            <path
               inkscape:connector-curvature="0"
               id="path1051"
               style="fill:#09009f;fill-opacity:1;fill-rule:nonzero;stroke:none"
               d="m 0,0 c 0,-0.138 -0.112,-0.25 -0.25,-0.25 -0.138,0 -0.251,0.112 -0.251,0.25 0,0.139 0.113,0.251 0.251,0.251 C -0.112,0.251 0,0.139 0,0" />
          </g>
          <g
             transform="translate(170.4805,47.2334)"
             id="g1053">
            <path
               inkscape:connector-curvature="0"
               id="path1055"
               style="fill:#09009f;fill-opacity:1;fill-rule:nonzero;stroke:none"
               d="M 0,0 C 0,0.138 0.113,0.25 0.251,0.25 0.39,0.25 0.502,0.138 0.502,0 0.502,-0.139 0.39,-0.251 0.251,-0.251 0.113,-0.251 0,-0.139 0,0" />
          </g>
          <g
             transform="translate(169.5361,47.2334)"
             id="g1057">
            <path
               inkscape:connector-curvature="0"
               id="path1059"
               style="fill:#09009f;fill-opacity:1;fill-rule:nonzero;stroke:none"
               d="M 0,0 C 0,0.138 0.112,0.25 0.25,0.25 0.39,0.25 0.501,0.138 0.501,0 0.501,-0.139 0.39,-0.251 0.25,-0.251 0.112,-0.251 0,-0.139 0,0" />
          </g>
          <g
             transform="translate(168.4229,47.2334)"
             id="g1061">
            <path
               inkscape:connector-curvature="0"
               id="path1063"
               style="fill:#09009f;fill-opacity:1;fill-rule:nonzero;stroke:none"
               d="M 0,0 C 0,0.138 0.111,0.25 0.25,0.25 0.39,0.25 0.501,0.138 0.501,0 0.501,-0.139 0.39,-0.251 0.25,-0.251 0.111,-0.251 0,-0.139 0,0" />
          </g>
          <g
             transform="translate(167.4766,47.2334)"
             id="g1065">
            <path
               inkscape:connector-curvature="0"
               id="path1067"
               style="fill:#09009f;fill-opacity:1;fill-rule:nonzero;stroke:none"
               d="M 0,0 C 0,0.138 0.113,0.25 0.25,0.25 0.391,0.25 0.501,0.138 0.501,0 0.501,-0.139 0.391,-0.251 0.25,-0.251 0.113,-0.251 0,-0.139 0,0" />
          </g>
          <g
             transform="translate(169.9238,48.1099)"
             id="g1069">
            <path
               inkscape:connector-curvature="0"
               id="path1071"
               style="fill:#09009f;fill-opacity:1;fill-rule:nonzero;stroke:none"
               d="M 0,0 C 0,0.138 0.112,0.25 0.25,0.25 0.39,0.25 0.501,0.138 0.501,0 0.501,-0.139 0.39,-0.251 0.25,-0.251 0.112,-0.251 0,-0.139 0,0" />
          </g>
          <g
             transform="translate(168.9785,48.1099)"
             id="g1073">
            <path
               inkscape:connector-curvature="0"
               id="path1075"
               style="fill:#09009f;fill-opacity:1;fill-rule:nonzero;stroke:none"
               d="M 0,0 C 0,0.138 0.113,0.25 0.251,0.25 0.39,0.25 0.502,0.138 0.502,0 0.502,-0.139 0.39,-0.251 0.251,-0.251 0.113,-0.251 0,-0.139 0,0" />
          </g>
          <g
             transform="translate(167.8652,48.1099)"
             id="g1077">
            <path
               inkscape:connector-curvature="0"
               id="path1079"
               style="fill:#09009f;fill-opacity:1;fill-rule:nonzero;stroke:none"
               d="M 0,0 C 0,0.138 0.112,0.25 0.251,0.25 0.39,0.25 0.502,0.138 0.502,0 0.502,-0.139 0.39,-0.251 0.251,-0.251 0.112,-0.251 0,-0.139 0,0" />
          </g>
          <g
             transform="translate(166.9209,48.1099)"
             id="g1081">
            <path
               inkscape:connector-curvature="0"
               id="path1083"
               style="fill:#09009f;fill-opacity:1;fill-rule:nonzero;stroke:none"
               d="M 0,0 C 0,0.138 0.111,0.25 0.25,0.25 0.39,0.25 0.501,0.138 0.501,0 0.501,-0.139 0.39,-0.251 0.25,-0.251 0.111,-0.251 0,-0.139 0,0" />
          </g>
          <g
             transform="translate(166.2871,47.2334)"
             id="g1085">
            <path
               inkscape:connector-curvature="0"
               id="path1087"
               style="fill:#09009f;fill-opacity:1;fill-rule:nonzero;stroke:none"
               d="M 0,0 C 0,0.138 0.11,0.25 0.25,0.25 0.389,0.25 0.501,0.138 0.501,0 0.501,-0.139 0.389,-0.251 0.25,-0.251 0.11,-0.251 0,-0.139 0,0" />
          </g>
          <g
             transform="translate(170.4707,49.0479)"
             id="g1089">
            <path
               inkscape:connector-curvature="0"
               id="path1091"
               style="fill:#09009f;fill-opacity:1;fill-rule:nonzero;stroke:none"
               d="M 0,0 C 0,0.139 0.112,0.25 0.251,0.25 0.39,0.25 0.501,0.139 0.501,0 0.501,-0.138 0.39,-0.25 0.251,-0.25 0.112,-0.25 0,-0.138 0,0" />
          </g>
          <g
             transform="translate(169.5264,49.0479)"
             id="g1093">
            <path
               inkscape:connector-curvature="0"
               id="path1095"
               style="fill:#09009f;fill-opacity:1;fill-rule:nonzero;stroke:none"
               d="M 0,0 C 0,0.139 0.111,0.25 0.25,0.25 0.388,0.25 0.501,0.139 0.501,0 0.501,-0.138 0.388,-0.25 0.25,-0.25 0.111,-0.25 0,-0.138 0,0" />
          </g>
          <g
             transform="translate(168.4131,49.0479)"
             id="g1097">
            <path
               inkscape:connector-curvature="0"
               id="path1099"
               style="fill:#09009f;fill-opacity:1;fill-rule:nonzero;stroke:none"
               d="M 0,0 C 0,0.139 0.111,0.25 0.249,0.25 0.388,0.25 0.501,0.139 0.501,0 0.501,-0.138 0.388,-0.25 0.249,-0.25 0.111,-0.25 0,-0.138 0,0" />
          </g>
          <g
             transform="translate(167.4668,49.0479)"
             id="g1101">
            <path
               inkscape:connector-curvature="0"
               id="path1103"
               style="fill:#09009f;fill-opacity:1;fill-rule:nonzero;stroke:none"
               d="M 0,0 C 0,0.139 0.112,0.25 0.25,0.25 0.39,0.25 0.501,0.139 0.501,0 0.501,-0.138 0.39,-0.25 0.25,-0.25 0.112,-0.25 0,-0.138 0,0" />
          </g>
          <g
             transform="translate(169.9141,49.9243)"
             id="g1105">
            <path
               inkscape:connector-curvature="0"
               id="path1107"
               style="fill:#09009f;fill-opacity:1;fill-rule:nonzero;stroke:none"
               d="M 0,0 C 0,0.139 0.112,0.25 0.25,0.25 0.39,0.25 0.501,0.139 0.501,0 0.501,-0.138 0.39,-0.25 0.25,-0.25 0.112,-0.25 0,-0.138 0,0" />
          </g>
          <g
             transform="translate(168.9688,49.9243)"
             id="g1109">
            <path
               inkscape:connector-curvature="0"
               id="path1111"
               style="fill:#09009f;fill-opacity:1;fill-rule:nonzero;stroke:none"
               d="M 0,0 C 0,0.139 0.113,0.25 0.25,0.25 0.39,0.25 0.501,0.139 0.501,0 0.501,-0.138 0.39,-0.25 0.25,-0.25 0.113,-0.25 0,-0.138 0,0" />
          </g>
          <g
             transform="translate(167.8555,49.9243)"
             id="g1113">
            <path
               inkscape:connector-curvature="0"
               id="path1115"
               style="fill:#09009f;fill-opacity:1;fill-rule:nonzero;stroke:none"
               d="M 0,0 C 0,0.139 0.112,0.25 0.25,0.25 0.389,0.25 0.501,0.139 0.501,0 0.501,-0.138 0.389,-0.25 0.25,-0.25 0.112,-0.25 0,-0.138 0,0" />
          </g>
          <g
             transform="translate(166.9102,49.9243)"
             id="g1117">
            <path
               inkscape:connector-curvature="0"
               id="path1119"
               style="fill:#09009f;fill-opacity:1;fill-rule:nonzero;stroke:none"
               d="m 0,0 c 0,0.139 0.112,0.25 0.251,0.25 0.138,0 0.25,-0.111 0.25,-0.25 0,-0.138 -0.112,-0.25 -0.25,-0.25 C 0.112,-0.25 0,-0.138 0,0" />
          </g>
          <g
             transform="translate(166.2773,49.0479)"
             id="g1121">
            <path
               inkscape:connector-curvature="0"
               id="path1123"
               style="fill:#09009f;fill-opacity:1;fill-rule:nonzero;stroke:none"
               d="M 0,0 C 0,0.139 0.112,0.25 0.25,0.25 0.388,0.25 0.501,0.139 0.501,0 0.501,-0.138 0.388,-0.25 0.25,-0.25 0.112,-0.25 0,-0.138 0,0" />
          </g>
          <g
             transform="translate(170.4707,51.0518)"
             id="g1125">
            <path
               inkscape:connector-curvature="0"
               id="path1127"
               style="fill:#09009f;fill-opacity:1;fill-rule:nonzero;stroke:none"
               d="M 0,0 C 0,0.139 0.112,0.25 0.251,0.25 0.39,0.25 0.501,0.139 0.501,0 0.501,-0.138 0.39,-0.251 0.251,-0.251 0.112,-0.251 0,-0.138 0,0" />
          </g>
          <g
             transform="translate(169.5264,51.0518)"
             id="g1129">
            <path
               inkscape:connector-curvature="0"
               id="path1131"
               style="fill:#09009f;fill-opacity:1;fill-rule:nonzero;stroke:none"
               d="M 0,0 C 0,0.139 0.111,0.25 0.25,0.25 0.388,0.25 0.501,0.139 0.501,0 0.501,-0.138 0.388,-0.251 0.25,-0.251 0.111,-0.251 0,-0.138 0,0" />
          </g>
          <g
             transform="translate(168.4131,51.0518)"
             id="g1133">
            <path
               inkscape:connector-curvature="0"
               id="path1135"
               style="fill:#09009f;fill-opacity:1;fill-rule:nonzero;stroke:none"
               d="M 0,0 C 0,0.139 0.111,0.25 0.249,0.25 0.388,0.25 0.501,0.139 0.501,0 0.501,-0.138 0.388,-0.251 0.249,-0.251 0.111,-0.251 0,-0.138 0,0" />
          </g>
          <g
             transform="translate(167.4668,51.0518)"
             id="g1137">
            <path
               inkscape:connector-curvature="0"
               id="path1139"
               style="fill:#09009f;fill-opacity:1;fill-rule:nonzero;stroke:none"
               d="M 0,0 C 0,0.139 0.112,0.25 0.25,0.25 0.39,0.25 0.501,0.139 0.501,0 0.501,-0.138 0.39,-0.251 0.25,-0.251 0.112,-0.251 0,-0.138 0,0" />
          </g>
          <g
             transform="translate(169.9141,51.9282)"
             id="g1141">
            <path
               inkscape:connector-curvature="0"
               id="path1143"
               style="fill:#09009f;fill-opacity:1;fill-rule:nonzero;stroke:none"
               d="M 0,0 C 0,0.139 0.112,0.25 0.25,0.25 0.39,0.25 0.501,0.139 0.501,0 0.501,-0.138 0.39,-0.251 0.25,-0.251 0.112,-0.251 0,-0.138 0,0" />
          </g>
          <g
             transform="translate(168.9688,51.9282)"
             id="g1145">
            <path
               inkscape:connector-curvature="0"
               id="path1147"
               style="fill:#09009f;fill-opacity:1;fill-rule:nonzero;stroke:none"
               d="M 0,0 C 0,0.139 0.113,0.25 0.25,0.25 0.39,0.25 0.501,0.139 0.501,0 0.501,-0.138 0.39,-0.251 0.25,-0.251 0.113,-0.251 0,-0.138 0,0" />
          </g>
          <g
             transform="translate(167.8555,51.9282)"
             id="g1149">
            <path
               inkscape:connector-curvature="0"
               id="path1151"
               style="fill:#09009f;fill-opacity:1;fill-rule:nonzero;stroke:none"
               d="M 0,0 C 0,0.139 0.112,0.25 0.25,0.25 0.389,0.25 0.501,0.139 0.501,0 0.501,-0.138 0.389,-0.251 0.25,-0.251 0.112,-0.251 0,-0.138 0,0" />
          </g>
          <g
             transform="translate(166.9102,51.9282)"
             id="g1153">
            <path
               inkscape:connector-curvature="0"
               id="path1155"
               style="fill:#09009f;fill-opacity:1;fill-rule:nonzero;stroke:none"
               d="m 0,0 c 0,0.139 0.112,0.25 0.251,0.25 0.138,0 0.25,-0.111 0.25,-0.25 0,-0.138 -0.112,-0.251 -0.25,-0.251 C 0.112,-0.251 0,-0.138 0,0" />
          </g>
          <g
             transform="translate(166.2773,51.0518)"
             id="g1157">
            <path
               inkscape:connector-curvature="0"
               id="path1159"
               style="fill:#09009f;fill-opacity:1;fill-rule:nonzero;stroke:none"
               d="M 0,0 C 0,0.139 0.112,0.25 0.25,0.25 0.388,0.25 0.501,0.139 0.501,0 0.501,-0.138 0.388,-0.251 0.25,-0.251 0.112,-0.251 0,-0.138 0,0" />
          </g>
          <g
             id="g1161">
            <g
               id="g1163" />
            <g
               id="g1195">
              <g
                 style="opacity:0.5"
                 id="g1193"
                 clip-path="url(#clipPath1167)">
                <g
                   id="g1171"
                   transform="translate(13.4424,42.4897)">
                  <path
                     inkscape:connector-curvature="0"
                     id="path1169"
                     style="fill:#ffffff;fill-opacity:1;fill-rule:nonzero;stroke:none"
                     d="m 0,0 c 0,-1.98 0.337,-3.669 1.014,-5.069 0.675,-1.4 1.617,-2.547 2.824,-3.439 1.206,-0.894 2.595,-1.546 4.164,-1.955 1.568,-0.411 3.269,-0.616 5.105,-0.616 1.978,0 3.668,0.229 5.069,0.688 1.399,0.458 2.534,1.05 3.403,1.774 0.869,0.724 1.496,1.557 1.883,2.498 0.386,0.942 0.579,1.894 0.579,2.861 0,1.979 -0.447,3.439 -1.34,4.381 C 21.808,2.064 20.83,2.727 19.769,3.114 17.934,3.79 15.797,4.429 13.36,5.033 10.922,5.636 7.917,6.42 4.345,7.386 c -2.221,0.579 -4.068,1.34 -5.54,2.281 -1.473,0.941 -2.643,1.992 -3.512,3.15 -0.869,1.159 -1.484,2.39 -1.846,3.693 -0.362,1.303 -0.543,2.631 -0.543,3.983 0,2.607 0.543,4.863 1.629,6.77 1.086,1.907 2.522,3.487 4.309,4.743 1.785,1.255 3.813,2.184 6.082,2.788 2.269,0.603 4.562,0.905 6.879,0.905 2.703,0 5.25,-0.35 7.64,-1.05 2.39,-0.7 4.49,-1.75 6.3,-3.149 1.81,-1.401 3.246,-3.127 4.308,-5.178 1.061,-2.052 1.593,-4.429 1.593,-7.133 h -9.051 c -0.242,3.332 -1.376,5.685 -3.404,7.061 -2.027,1.375 -4.61,2.063 -7.748,2.063 -1.062,0 -2.149,-0.108 -3.258,-0.326 C 7.072,27.77 6.058,27.408 5.142,26.901 4.224,26.395 3.463,25.707 2.86,24.837 2.256,23.969 1.955,22.882 1.955,21.579 c 0,-1.835 0.567,-3.271 1.702,-4.308 1.134,-1.039 2.618,-1.823 4.453,-2.354 0.193,-0.048 0.953,-0.253 2.281,-0.615 1.327,-0.363 2.812,-0.761 4.454,-1.195 1.64,-0.435 3.246,-0.858 4.815,-1.268 1.568,-0.41 2.691,-0.712 3.367,-0.904 1.689,-0.532 3.161,-1.256 4.417,-2.173 1.255,-0.918 2.305,-1.968 3.15,-3.15 0.844,-1.183 1.472,-2.45 1.883,-3.801 0.41,-1.353 0.615,-2.705 0.615,-4.056 0,-2.896 -0.591,-5.371 -1.774,-7.422 -1.183,-2.052 -2.74,-3.729 -4.67,-5.033 -1.932,-1.303 -4.127,-2.257 -6.59,-2.86 -2.462,-0.603 -4.973,-0.905 -7.531,-0.905 -2.944,0 -5.72,0.362 -8.327,1.086 -2.607,0.724 -4.876,1.835 -6.806,3.331 -1.932,1.496 -3.477,3.415 -4.635,5.757 -1.158,2.341 -1.763,5.105 -1.81,8.291 z" />
                </g>
                <g
                   id="g1175"
                   transform="translate(89.3301,60.5205)">
                  <path
                     inkscape:connector-curvature="0"
                     id="path1173"
                     style="fill:#ffffff;fill-opacity:1;fill-rule:nonzero;stroke:none"
                     d="m 0,0 c -0.387,1.496 -0.918,2.872 -1.593,4.127 -0.677,1.255 -1.546,2.341 -2.606,3.259 -1.063,0.917 -2.307,1.629 -3.73,2.136 -1.425,0.507 -3.077,0.761 -4.96,0.761 -2.752,0 -5.131,-0.556 -7.132,-1.666 -2.004,-1.111 -3.634,-2.596 -4.889,-4.453 -1.256,-1.859 -2.184,-3.972 -2.787,-6.336 -0.605,-2.366 -0.906,-4.78 -0.906,-7.242 0,-2.461 0.301,-4.876 0.906,-7.241 0.603,-2.366 1.531,-4.478 2.787,-6.336 1.255,-1.859 2.885,-3.343 4.889,-4.453 2.001,-1.111 4.38,-1.666 7.132,-1.666 2.028,0 3.813,0.35 5.358,1.05 1.545,0.7 2.872,1.666 3.983,2.897 1.11,1.231 1.979,2.666 2.607,4.309 0.627,1.64 1.037,3.403 1.231,5.286 h 8.834 c -0.193,-3.091 -0.857,-5.914 -1.991,-8.473 -1.135,-2.559 -2.668,-4.768 -4.598,-6.626 -1.931,-1.858 -4.201,-3.294 -6.806,-4.308 -2.608,-1.014 -5.481,-1.521 -8.618,-1.521 -3.863,0 -7.326,0.713 -10.391,2.137 -3.067,1.423 -5.661,3.367 -7.784,5.829 -2.125,2.462 -3.755,5.333 -4.889,8.617 -1.134,3.282 -1.701,6.782 -1.701,10.499 0,3.668 0.567,7.144 1.701,10.428 1.134,3.282 2.764,6.155 4.889,8.617 2.123,2.462 4.717,4.417 7.784,5.865 3.065,1.448 6.528,2.172 10.391,2.172 2.897,0 5.623,-0.397 8.182,-1.194 2.559,-0.797 4.816,-1.955 6.771,-3.476 C 4.02,11.478 5.6,9.631 6.807,7.458 8.014,5.286 8.762,2.799 9.052,0 Z" />
                </g>
                <g
                   id="g1179"
                   transform="translate(117.3525,45.8208)">
                  <path
                     inkscape:connector-curvature="0"
                     id="path1177"
                     style="fill:#ffffff;fill-opacity:1;fill-rule:nonzero;stroke:none"
                     d="M 0,0 H 15.786 L 8.038,22.23 H 7.82 Z m 3.187,31.137 h 9.63 L 32.729,-20.565 H 23.026 L 18.175,-6.879 H -2.462 l -4.851,-13.686 h -9.342 z" />
                </g>
                <g
                   id="g1183"
                   transform="translate(143.4199,76.958)">
                  <path
                     inkscape:connector-curvature="0"
                     id="path1181"
                     style="fill:#ffffff;fill-opacity:1;fill-rule:nonzero;stroke:none"
                     d="M 0,0 H 41.854 V -7.82 H 25.417 V -51.702 H 16.365 V -7.82 H 0 Z" />
                </g>
                <g
                   id="g1187"
                   transform="translate(191.2832,76.958)">
                  <path
                     inkscape:connector-curvature="0"
                     id="path1185"
                     style="fill:#ffffff;fill-opacity:1;fill-rule:nonzero;stroke:none"
                     d="M 0,0 H 37.22 V -7.82 H 9.052 V -21.361 H 35.12 v -7.387 H 9.052 v -15.134 h 28.676 v -7.82 H 0 Z" />
                </g>
                <g
                   id="g1191"
                   transform="translate(245.9541,53.4243)">
                  <path
                     inkscape:connector-curvature="0"
                     id="path1189"
                     style="fill:#ffffff;fill-opacity:1;fill-rule:nonzero;stroke:none"
                     d="m 0,0 h 14.845 c 2.896,0 5.093,0.688 6.59,2.063 1.495,1.376 2.244,3.44 2.244,6.192 0,1.641 -0.242,2.98 -0.724,4.019 -0.483,1.037 -1.147,1.846 -1.991,2.426 -0.846,0.579 -1.811,0.965 -2.897,1.158 -1.087,0.192 -2.209,0.29 -3.367,0.29 H 0 Z m -9.052,23.534 h 24.694 c 5.695,0 9.967,-1.231 12.816,-3.693 2.848,-2.462 4.272,-5.89 4.272,-10.283 0,-2.462 -0.362,-4.502 -1.085,-6.119 -0.725,-1.618 -1.57,-2.921 -2.536,-3.91 -0.965,-0.99 -1.919,-1.701 -2.859,-2.136 -0.941,-0.435 -1.63,-0.724 -2.064,-0.869 v -0.145 c 0.771,-0.097 1.604,-0.338 2.498,-0.724 0.893,-0.387 1.725,-1.002 2.499,-1.846 0.771,-0.846 1.412,-1.944 1.919,-3.295 0.506,-1.352 0.759,-3.041 0.759,-5.069 0,-3.041 0.229,-5.805 0.689,-8.291 0.458,-2.487 1.17,-4.261 2.136,-5.322 h -9.704 c -0.676,1.109 -1.075,2.34 -1.195,3.692 -0.121,1.351 -0.181,2.655 -0.181,3.911 0,2.364 -0.144,4.404 -0.434,6.119 -0.289,1.713 -0.821,3.137 -1.593,4.272 -0.772,1.133 -1.823,1.966 -3.15,2.498 -1.328,0.531 -3.03,0.797 -5.105,0.797 H 0 v -21.289 h -9.052 z" />
                </g>
              </g>
            </g>
          </g>
          <g
             transform="translate(13.4424,42.4897)"
             id="g1197">
            <path
               inkscape:connector-curvature="0"
               id="path1199"
               style="fill:none;stroke:#000000;stroke-width:1;stroke-linecap:butt;stroke-linejoin:miter;stroke-miterlimit:4;stroke-dasharray:none;stroke-opacity:1"
               d="m 0,0 c 0,-1.98 0.337,-3.669 1.014,-5.069 0.675,-1.4 1.617,-2.547 2.824,-3.439 1.206,-0.894 2.595,-1.546 4.164,-1.955 1.568,-0.411 3.269,-0.616 5.105,-0.616 1.978,0 3.668,0.229 5.069,0.688 1.399,0.458 2.534,1.05 3.403,1.774 0.869,0.724 1.496,1.557 1.883,2.498 0.386,0.942 0.579,1.894 0.579,2.861 0,1.979 -0.447,3.439 -1.34,4.381 C 21.808,2.064 20.83,2.727 19.769,3.114 17.934,3.79 15.797,4.429 13.36,5.033 10.922,5.636 7.917,6.42 4.345,7.386 c -2.221,0.579 -4.068,1.34 -5.54,2.281 -1.473,0.941 -2.643,1.992 -3.512,3.15 -0.869,1.159 -1.484,2.39 -1.846,3.693 -0.362,1.303 -0.543,2.631 -0.543,3.983 0,2.607 0.543,4.863 1.629,6.77 1.086,1.907 2.522,3.487 4.309,4.743 1.785,1.255 3.813,2.184 6.082,2.788 2.269,0.603 4.562,0.905 6.879,0.905 2.703,0 5.25,-0.35 7.64,-1.05 2.39,-0.7 4.49,-1.75 6.3,-3.149 1.81,-1.401 3.246,-3.127 4.308,-5.178 1.061,-2.052 1.593,-4.429 1.593,-7.133 h -9.051 c -0.242,3.332 -1.376,5.685 -3.404,7.061 -2.027,1.375 -4.61,2.063 -7.748,2.063 -1.062,0 -2.149,-0.108 -3.258,-0.326 C 7.072,27.77 6.058,27.408 5.142,26.901 4.224,26.395 3.463,25.707 2.86,24.837 2.256,23.969 1.955,22.882 1.955,21.579 c 0,-1.835 0.567,-3.271 1.702,-4.308 1.134,-1.039 2.618,-1.823 4.453,-2.354 0.193,-0.048 0.953,-0.253 2.281,-0.615 1.327,-0.363 2.812,-0.761 4.454,-1.195 1.64,-0.435 3.246,-0.858 4.815,-1.268 1.568,-0.41 2.691,-0.712 3.367,-0.904 1.689,-0.532 3.161,-1.256 4.417,-2.173 1.255,-0.918 2.305,-1.968 3.15,-3.15 0.844,-1.183 1.472,-2.45 1.883,-3.801 0.41,-1.353 0.615,-2.705 0.615,-4.056 0,-2.896 -0.591,-5.371 -1.774,-7.422 -1.183,-2.052 -2.74,-3.729 -4.67,-5.033 -1.932,-1.303 -4.127,-2.257 -6.59,-2.86 -2.462,-0.603 -4.973,-0.905 -7.531,-0.905 -2.944,0 -5.72,0.362 -8.327,1.086 -2.607,0.724 -4.876,1.835 -6.806,3.331 -1.932,1.496 -3.477,3.415 -4.635,5.757 -1.158,2.341 -1.763,5.105 -1.81,8.291 z" />
          </g>
          <g
             transform="translate(89.3301,60.5205)"
             id="g1201">
            <path
               inkscape:connector-curvature="0"
               id="path1203"
               style="fill:none;stroke:#000000;stroke-width:1;stroke-linecap:butt;stroke-linejoin:miter;stroke-miterlimit:4;stroke-dasharray:none;stroke-opacity:1"
               d="M 0,0 C -0.387,1.496 -0.917,2.872 -1.593,4.127 -2.27,5.382 -3.138,6.468 -4.2,7.386 c -1.062,0.917 -2.305,1.629 -3.729,2.136 -1.425,0.507 -3.077,0.761 -4.96,0.761 -2.752,0 -5.13,-0.556 -7.133,-1.666 -2.003,-1.111 -3.633,-2.596 -4.888,-4.453 -1.256,-1.859 -2.184,-3.972 -2.787,-6.336 -0.605,-2.366 -0.906,-4.78 -0.906,-7.242 0,-2.461 0.301,-4.876 0.906,-7.241 0.603,-2.366 1.531,-4.478 2.787,-6.336 1.255,-1.859 2.885,-3.343 4.888,-4.453 2.003,-1.111 4.381,-1.666 7.133,-1.666 2.027,0 3.813,0.35 5.358,1.05 1.545,0.7 2.872,1.666 3.983,2.897 1.11,1.231 1.979,2.666 2.607,4.309 0.627,1.64 1.037,3.403 1.231,5.286 h 8.834 c -0.193,-3.091 -0.857,-5.914 -1.991,-8.473 -1.135,-2.559 -2.668,-4.768 -4.598,-6.626 -1.932,-1.858 -4.201,-3.294 -6.807,-4.308 -2.607,-1.014 -5.479,-1.521 -8.617,-1.521 -3.863,0 -7.326,0.713 -10.391,2.137 -3.067,1.423 -5.661,3.367 -7.784,5.829 -2.125,2.462 -3.755,5.333 -4.889,8.617 -1.134,3.282 -1.701,6.782 -1.701,10.499 0,3.668 0.567,7.144 1.701,10.428 1.134,3.282 2.764,6.155 4.889,8.617 2.123,2.462 4.717,4.417 7.784,5.865 3.065,1.448 6.528,2.172 10.391,2.172 2.896,0 5.623,-0.397 8.182,-1.194 2.559,-0.797 4.816,-1.955 6.771,-3.476 C 4.019,11.478 5.6,9.631 6.807,7.458 8.013,5.286 8.762,2.799 9.052,0 Z" />
          </g>
          <g
             transform="translate(120.5386,76.958)"
             id="g1205">
            <path
               inkscape:connector-curvature="0"
               id="path1207"
               style="fill:none;stroke:#000000;stroke-width:1;stroke-linecap:butt;stroke-linejoin:miter;stroke-miterlimit:4;stroke-dasharray:none;stroke-opacity:1"
               d="m 0,0 h 9.631 l 19.912,-51.702 h -9.702 l -4.852,13.686 H -5.648 L -10.5,-51.702 h -9.341 z" />
          </g>
          <g
             transform="translate(143.4199,76.958)"
             id="g1209">
            <path
               inkscape:connector-curvature="0"
               id="path1211"
               style="fill:none;stroke:#000000;stroke-width:1;stroke-linecap:butt;stroke-linejoin:miter;stroke-miterlimit:4;stroke-dasharray:none;stroke-opacity:1"
               d="M 0,0 H 41.854 V -7.82 H 25.417 V -51.702 H 16.365 V -7.82 H 0 Z" />
          </g>
          <g
             transform="translate(191.2832,76.958)"
             id="g1213">
            <path
               inkscape:connector-curvature="0"
               id="path1215"
               style="fill:none;stroke:#000000;stroke-width:1;stroke-linecap:butt;stroke-linejoin:miter;stroke-miterlimit:4;stroke-dasharray:none;stroke-opacity:1"
               d="M 0,0 H 37.22 V -7.82 H 9.052 V -21.361 H 35.12 v -7.387 H 9.052 v -15.134 h 28.676 v -7.82 H 0 Z" />
          </g>
          <g
             transform="translate(245.9541,53.4243)"
             id="g1217">
            <path
               inkscape:connector-curvature="0"
               id="path1219"
               style="fill:none;stroke:#000000;stroke-width:1;stroke-linecap:butt;stroke-linejoin:miter;stroke-miterlimit:4;stroke-dasharray:none;stroke-opacity:1"
               d="m 0,0 h 14.845 c 2.896,0 5.093,0.688 6.59,2.063 1.495,1.376 2.244,3.44 2.244,6.192 0,1.641 -0.242,2.98 -0.724,4.019 -0.483,1.037 -1.147,1.846 -1.991,2.426 -0.846,0.579 -1.811,0.965 -2.897,1.158 -1.087,0.192 -2.209,0.29 -3.367,0.29 H 0 Z m -9.052,23.534 h 24.694 c 5.695,0 9.967,-1.231 12.816,-3.693 2.848,-2.462 4.272,-5.89 4.272,-10.283 0,-2.462 -0.362,-4.502 -1.085,-6.119 -0.725,-1.618 -1.57,-2.921 -2.536,-3.91 -0.965,-0.99 -1.919,-1.701 -2.859,-2.136 -0.941,-0.435 -1.63,-0.724 -2.064,-0.869 v -0.145 c 0.771,-0.097 1.604,-0.338 2.498,-0.724 0.893,-0.387 1.725,-1.002 2.499,-1.846 0.771,-0.846 1.412,-1.944 1.919,-3.295 0.506,-1.352 0.759,-3.041 0.759,-5.069 0,-3.041 0.229,-5.805 0.689,-8.291 0.458,-2.487 1.17,-4.261 2.136,-5.322 h -9.704 c -0.676,1.109 -1.075,2.34 -1.195,3.692 -0.121,1.351 -0.181,2.655 -0.181,3.911 0,2.364 -0.144,4.404 -0.434,6.119 -0.289,1.713 -0.821,3.137 -1.593,4.272 -0.772,1.133 -1.823,1.966 -3.15,2.498 -1.328,0.531 -3.03,0.797 -5.105,0.797 H 0 v -21.289 h -9.052 z" />
          </g>
        </g>
      </g>
      <text
         id="text1223"
         style="font-variant:normal;font-weight:normal;font-stretch:normal;font-size:11px;font-family:'Helvetica Neue';-inkscape-font-specification:HelveticaNeue;writing-mode:lr-tb;fill:#231f20;fill-opacity:1;fill-rule:nonzero;stroke:none"
         transform="matrix(1,0,0,-1,2.52,8.0498)">
        <tspan
           id="tspan1221"
           sodipodi:role="line"
           y="0"
           x="0 7.1279998 9.5699997 15.686 22 24.441999 30.349001 33.407001 41.348999 47.256001 49.698002 52.139999 55.198002 62.326 68.442001 74.348999 76.791 82.291 87.791 90.233002 95.733002 98.791 103.884 109.791 115.698 121.814 124.256 130.37199 132.814 139.33701 145.453 151.36 156.86 159.918 162.36 168.476 171.534 178.255 184.778 187.22 193.534 199.44099 205.55701 211.464 214.929 217.371 223.278 228.778 231.836 239.371 245.278 250.778 256.685 262.59201 266.05701 271.96399">Single Cell Analysis Techiniques in Epigenetics Research</tspan>
      </text>
    </g>
  </g>
</svg>
